<?xml version="1.0" encoding="UTF-8"?>
<svg id="Layer_1" xmlns="http://www.w3.org/2000/svg" xmlns:xlink="http://www.w3.org/1999/xlink" version="1.1" viewBox="0 0 1729 431.3">
  <!-- Generator: Adobe Illustrator 30.1.0, SVG Export Plug-In . SVG Version: 2.1.1 Build 136)  -->
  <defs>
    <style>
      .st0 {
        fill: none;
      }

      .st1 {
        fill: #010000;
      }

      .st2 {
        clip-path: url(#clippath);
      }
    </style>
    <clipPath id="clippath">
      <rect class="st0" x="0" y="0" width="1729" height="431.3"/>
    </clipPath>
  </defs>
  <g class="st2">
    <g id="Layer_11" data-name="Layer_1">
      <g>
        <g>
          <rect class="st1" x="116.9" y="156.8" width="57.9" height="57.9"/>
          <rect class="st1" x="174.8" y="156.8" width="57.9" height="57.9"/>
          <rect class="st1" x="116.9" y="255.7" width="57.9" height="57.9"/>
          <rect class="st1" x="215.8" y="197.8" width="57.9" height="57.9"/>
          <rect class="st1" x="244.7" y="127.8" width="57.9" height="57.9" transform="translate(-30.7 239.5) rotate(-45)"/>
          <rect class="st1" x="215.8" y="255.7" width="57.9" height="57.9"/>
        </g>
        <g>
          <path class="st1" d="M407.7,314v-156.2h107.6v21.4h-84.2v46.9h74.5v21.2h-74.5v45.3h84.2v21.4h-107.6Z"/>
          <path class="st1" d="M539,314v-156.2h22.8v156.2h-22.8Z"/>
          <path class="st1" d="M641.1,315.3c-12.2,0-22.5-2.5-30.7-7.5-8.3-5-14.5-12-18.7-20.9s-6.3-19.2-6.3-30.8,2.2-22.2,6.5-31.2c4.4-9,10.7-16.1,19-21.2,8.3-5.1,18.4-7.7,30.2-7.7s16.8,1.7,23.4,5c6.6,3.3,12.1,7.8,16.5,13.4s7.6,11.8,9.6,18.7c2.1,6.9,3,14,2.7,21.3,0,1.6,0,3.2-.2,4.6-.1,1.5-.3,3-.4,4.6h-84.2c.4,5.9,2,11.3,4.5,16.1,2.6,4.9,6.2,8.7,10.9,11.6s10.5,4.3,17.5,4.3,7.6-.5,11.2-1.4c3.6-1,6.8-2.5,9.7-4.6,2.9-2.1,4.9-4.9,6.1-8.3h23c-1.9,7.8-5.3,14.3-10.3,19.3-4.9,5.1-10.9,8.8-17.9,11.2-7,2.4-14.3,3.5-22,3.5h0ZM608.8,245.5h61.9c-.2-5.8-1.5-10.9-4-15.3s-6-8-10.4-10.6c-4.4-2.6-9.7-3.9-15.9-3.9s-12.4,1.4-16.9,4.2-8,6.4-10.4,10.9-3.9,9.4-4.3,14.7h0Z"/>
          <path class="st1" d="M747.4,314l-43.5-116.5h25.4l33.6,95.9,33.4-95.9h25.6l-43.5,116.5h-30.9Z"/>
          <path class="st1" d="M873.8,315.3c-5.3,0-10.4-.7-15.4-2.1-4.9-1.4-9.3-3.5-13.2-6.4-3.8-2.9-6.9-6.5-9.2-10.8-2.3-4.4-3.4-9.5-3.4-15.4s1.4-12.9,4.1-17.6c2.7-4.6,6.4-8.3,10.9-10.8,4.6-2.6,9.8-4.4,15.8-5.5,6-1.1,12.2-1.7,18.7-1.7h28.5c0-5.8-.9-10.8-2.7-15.1-1.8-4.3-4.5-7.7-8.3-10.2-3.8-2.4-8.7-3.7-14.9-3.7s-7.2.4-10.5,1.2-6.2,2.1-8.5,3.9c-2.4,1.8-4,4.1-4.9,7.1h-23.9c.9-5.6,2.9-10.4,6-14.5,3.1-4,6.9-7.4,11.5-10,4.6-2.7,9.5-4.6,14.7-5.8,5.2-1.3,10.6-1.9,16-1.9,16.8,0,28.9,4.9,36.3,14.7,7.4,9.8,11.2,23.2,11.2,40.3v63h-19.7l-.9-14.8c-3.4,4.6-7.4,8-12,10.4-4.6,2.4-9.2,3.9-13.8,4.6s-8.8,1.1-12.6,1.1h0ZM877.3,296.1c6.6,0,12.5-1.1,17.4-3.4,5-2.3,8.9-5.6,11.7-9.9s4.2-9.5,4.2-15.4v-4.9h-20.8c-4.3,0-8.4.1-12.5.3-4,.2-7.7.8-11.1,1.8-3.3,1-6,2.5-8,4.8-2,2.2-3,5.4-3,9.5s1,7.2,3.1,9.7c2.1,2.5,4.8,4.4,8.2,5.6,3.4,1.3,6.9,1.9,10.6,1.9h0Z"/>
          <path class="st1" d="M1005.3,315.3c-12.5,0-21.5-3.4-26.8-10.3-5.4-6.9-8.1-16.5-8.1-28.8v-58.3h-18.6v-20.3h18.6v-33.8h22.8v33.8h35.6v20.3h-35.6v54.6c0,4.1.4,7.9,1.2,11.3.8,3.4,2.4,6,4.7,8s5.7,3,10.2,3.1c3.4,0,6.4-.6,9-1.8s4.7-2.5,6.3-4l8.9,17c-2.8,2.2-5.7,4-8.7,5.4s-6.2,2.4-9.4,3c-3.2.6-6.6.9-9.9.9h0Z"/>
          <path class="st1" d="M1101,315.3c-12.2,0-22.5-2.5-30.7-7.5s-14.5-12-18.7-20.9-6.3-19.2-6.3-30.8,2.2-22.2,6.5-31.2c4.4-9,10.7-16.1,19-21.2,8.3-5.1,18.4-7.7,30.2-7.7s16.8,1.7,23.4,5c6.6,3.3,12.1,7.8,16.5,13.4,4.4,5.6,7.6,11.8,9.6,18.7,2.1,6.9,3,14,2.7,21.3,0,1.6,0,3.2-.2,4.6-.2,1.5-.3,3-.4,4.6h-84.2c.4,5.9,2,11.3,4.5,16.1,2.6,4.9,6.2,8.7,10.9,11.6s10.5,4.3,17.5,4.3,7.5-.5,11.2-1.4c3.6-1,6.9-2.5,9.7-4.6,2.9-2.1,4.9-4.9,6.1-8.3h23c-1.9,7.8-5.3,14.3-10.3,19.3-4.9,5.1-10.9,8.8-17.9,11.2-7,2.4-14.3,3.5-22,3.5h0ZM1068.7,245.5h61.9c-.2-5.8-1.5-10.9-4-15.3s-6-8-10.4-10.6c-4.4-2.6-9.7-3.9-15.9-3.9s-12.4,1.4-16.9,4.2c-4.5,2.8-8,6.4-10.4,10.9s-3.9,9.4-4.3,14.7h0Z"/>
          <path class="st1" d="M1176.5,314v-116.5h21.7l1.1,16.4c3-4.3,6.5-7.7,10.6-10.3,4.1-2.6,8.5-4.5,13.3-5.8,4.7-1.3,9.3-1.9,13.7-1.9,11.2,0,20,2.4,26.4,7.2,6.4,4.8,11,11.2,13.7,19.2,2.7,8,4.1,17.1,4.1,27.3v64.3h-23v-59.7c0-4.7-.3-9.4-.9-13.9-.6-4.6-1.8-8.7-3.7-12.3-1.8-3.6-4.5-6.5-7.8-8.6-3.4-2.1-8-3.2-13.7-3.2s-13,1.9-17.9,5.8c-4.9,3.8-8.5,9-11.1,15.5-2.5,6.5-3.7,13.8-3.7,21.9v54.6h-22.8Z"/>
          <path class="st1" d="M1360.2,315.3c-12.1,0-22.3-2.5-30.7-7.4-8.4-4.9-14.8-11.9-19.1-20.9s-6.5-19.4-6.5-31.2,2.2-22.4,6.6-31.3c4.4-8.9,10.8-15.9,19.2-21,8.4-5.1,18.6-7.6,30.7-7.6s22.3,2.5,30.7,7.6c8.4,5.1,14.7,12.1,19,21.1,4.3,9,6.4,19.4,6.4,31.4s-2.2,22-6.5,30.9c-4.4,9-10.7,15.9-19,20.9-8.3,4.9-18.6,7.4-30.8,7.4h0ZM1360.2,295c8,0,14.4-1.8,19.3-5.3,4.9-3.5,8.6-8.3,10.9-14.3s3.5-12.5,3.5-19.6-1.2-13.6-3.5-19.4-6-10.6-10.9-14.3c-4.9-3.6-11.4-5.4-19.3-5.4s-14.2,1.8-19.2,5.4c-5,3.6-8.7,8.4-10.9,14.3-2.3,5.9-3.4,12.4-3.4,19.4s1.1,13.8,3.4,19.7c2.3,5.9,5.9,10.6,10.9,14.1,5,3.5,11.4,5.3,19.2,5.3h0Z"/>
          <path class="st1" d="M1464.2,314l-36.2-116.5h25.4l25.6,92.6,27-92.6h28.5l27,92.6,25.2-92.6h25.4l-36.2,116.5h-28.9l-27-89-26.7,89h-28.9,0Z"/>
        </g>
      </g>
    </g>
  </g>
</svg>